<mxfile host="Electron" agent="Mozilla/5.0 (X11; Linux x86_64) AppleWebKit/537.36 (KHTML, like Gecko) draw.io/25.0.2 Chrome/128.0.6613.186 Electron/32.2.5 Safari/537.36" version="25.0.2">
  <diagram name="Page-1" id="S8CuM7U9LiAPq1fTevWN">
    <mxGraphModel dx="2284" dy="835" grid="1" gridSize="10" guides="1" tooltips="1" connect="1" arrows="1" fold="1" page="1" pageScale="1" pageWidth="850" pageHeight="1100" math="0" shadow="0">
      <root>
        <mxCell id="0" />
        <mxCell id="1" parent="0" />
        <mxCell id="3GJUlnVpZ_GFLkOYyEOu-1" value="Yaesu FT-847&amp;nbsp;&lt;div&gt;with VHF antenna&lt;/div&gt;" style="shape=mxgraph.signs.safety.non-ionizing_radiation;html=1;pointerEvents=1;fillColor=#000000;strokeColor=none;verticalLabelPosition=bottom;verticalAlign=top;align=center;sketch=0;" vertex="1" parent="1">
          <mxGeometry x="-120" y="509" width="98" height="83" as="geometry" />
        </mxCell>
        <mxCell id="3GJUlnVpZ_GFLkOYyEOu-26" style="edgeStyle=orthogonalEdgeStyle;rounded=0;orthogonalLoop=1;jettySize=auto;html=1;" edge="1" parent="1" source="3GJUlnVpZ_GFLkOYyEOu-3" target="3GJUlnVpZ_GFLkOYyEOu-14">
          <mxGeometry relative="1" as="geometry" />
        </mxCell>
        <mxCell id="3GJUlnVpZ_GFLkOYyEOu-3" value="Direwolf log parser&amp;nbsp;&lt;div&gt;watchdog&lt;/div&gt;" style="sketch=0;outlineConnect=0;fontColor=#232F3E;gradientColor=none;fillColor=#7AA116;strokeColor=none;dashed=0;verticalLabelPosition=bottom;verticalAlign=top;align=center;html=1;fontSize=12;fontStyle=0;aspect=fixed;pointerEvents=1;shape=mxgraph.aws4.generic;" vertex="1" parent="1">
          <mxGeometry x="530" y="511" width="78" height="78" as="geometry" />
        </mxCell>
        <mxCell id="3GJUlnVpZ_GFLkOYyEOu-4" value="GeoJSON Data" style="sketch=0;outlineConnect=0;fontColor=#232F3E;gradientColor=none;fillColor=#232F3D;strokeColor=none;dashed=0;verticalLabelPosition=bottom;verticalAlign=top;align=center;html=1;fontSize=12;fontStyle=0;aspect=fixed;pointerEvents=1;shape=mxgraph.aws4.json_script;" vertex="1" parent="1">
          <mxGeometry x="1020" y="470" width="37" height="50.63" as="geometry" />
        </mxCell>
        <mxCell id="3GJUlnVpZ_GFLkOYyEOu-35" style="edgeStyle=orthogonalEdgeStyle;rounded=0;orthogonalLoop=1;jettySize=auto;html=1;" edge="1" parent="1" source="3GJUlnVpZ_GFLkOYyEOu-5" target="3GJUlnVpZ_GFLkOYyEOu-33">
          <mxGeometry relative="1" as="geometry" />
        </mxCell>
        <mxCell id="3GJUlnVpZ_GFLkOYyEOu-5" value="Static webpage&amp;nbsp;&lt;div&gt;hosted in S3&lt;/div&gt;" style="sketch=0;outlineConnect=0;fontColor=#232F3E;gradientColor=none;fillColor=#232F3D;strokeColor=none;dashed=0;verticalLabelPosition=bottom;verticalAlign=top;align=center;html=1;fontSize=12;fontStyle=0;aspect=fixed;pointerEvents=1;shape=mxgraph.aws4.source_code;" vertex="1" parent="1">
          <mxGeometry x="1552" y="720" width="57" height="78" as="geometry" />
        </mxCell>
        <mxCell id="3GJUlnVpZ_GFLkOYyEOu-11" style="edgeStyle=orthogonalEdgeStyle;rounded=0;orthogonalLoop=1;jettySize=auto;html=1;startArrow=classic;startFill=1;" edge="1" parent="1" source="3GJUlnVpZ_GFLkOYyEOu-6" target="3GJUlnVpZ_GFLkOYyEOu-9">
          <mxGeometry relative="1" as="geometry" />
        </mxCell>
        <mxCell id="3GJUlnVpZ_GFLkOYyEOu-6" value="xggcomms&amp;nbsp;&lt;div&gt;USB Digital interface&lt;/div&gt;" style="sketch=0;outlineConnect=0;fontColor=#232F3E;gradientColor=none;fillColor=#232F3D;strokeColor=none;dashed=0;verticalLabelPosition=bottom;verticalAlign=top;align=center;html=1;fontSize=12;fontStyle=0;aspect=fixed;pointerEvents=1;shape=mxgraph.aws4.gear;" vertex="1" parent="1">
          <mxGeometry x="70" y="511" width="78" height="78" as="geometry" />
        </mxCell>
        <mxCell id="3GJUlnVpZ_GFLkOYyEOu-7" value="APRS&amp;nbsp;&lt;div&gt;pakcets&lt;/div&gt;" style="sketch=0;outlineConnect=0;fontColor=#232F3E;gradientColor=none;fillColor=#232F3D;strokeColor=none;dashed=0;verticalLabelPosition=bottom;verticalAlign=top;align=center;html=1;fontSize=12;fontStyle=0;aspect=fixed;pointerEvents=1;shape=mxgraph.aws4.chat;" vertex="1" parent="1">
          <mxGeometry x="220" y="450" width="59.65" height="52" as="geometry" />
        </mxCell>
        <mxCell id="3GJUlnVpZ_GFLkOYyEOu-12" style="edgeStyle=orthogonalEdgeStyle;rounded=0;orthogonalLoop=1;jettySize=auto;html=1;" edge="1" parent="1" source="3GJUlnVpZ_GFLkOYyEOu-9" target="3GJUlnVpZ_GFLkOYyEOu-3">
          <mxGeometry relative="1" as="geometry" />
        </mxCell>
        <mxCell id="3GJUlnVpZ_GFLkOYyEOu-9" value="Direwolf" style="sketch=0;outlineConnect=0;fontColor=#232F3E;gradientColor=none;fillColor=#7AA116;strokeColor=none;dashed=0;verticalLabelPosition=bottom;verticalAlign=top;align=center;html=1;fontSize=12;fontStyle=0;aspect=fixed;pointerEvents=1;shape=mxgraph.aws4.iot_thing_vibration_sensor;" vertex="1" parent="1">
          <mxGeometry x="360" y="511" width="78" height="78" as="geometry" />
        </mxCell>
        <mxCell id="3GJUlnVpZ_GFLkOYyEOu-13" style="edgeStyle=orthogonalEdgeStyle;rounded=0;orthogonalLoop=1;jettySize=auto;html=1;entryX=1;entryY=0.5;entryDx=0;entryDy=0;entryPerimeter=0;startArrow=classic;startFill=1;" edge="1" parent="1" source="3GJUlnVpZ_GFLkOYyEOu-6" target="3GJUlnVpZ_GFLkOYyEOu-1">
          <mxGeometry relative="1" as="geometry" />
        </mxCell>
        <mxCell id="3GJUlnVpZ_GFLkOYyEOu-27" style="edgeStyle=orthogonalEdgeStyle;rounded=0;orthogonalLoop=1;jettySize=auto;html=1;" edge="1" parent="1" source="3GJUlnVpZ_GFLkOYyEOu-14" target="3GJUlnVpZ_GFLkOYyEOu-16">
          <mxGeometry relative="1" as="geometry" />
        </mxCell>
        <mxCell id="3GJUlnVpZ_GFLkOYyEOu-14" value="MQTT Topic" style="sketch=0;outlineConnect=0;fontColor=#232F3E;gradientColor=none;fillColor=#7AA116;strokeColor=none;dashed=0;verticalLabelPosition=bottom;verticalAlign=top;align=center;html=1;fontSize=12;fontStyle=0;aspect=fixed;pointerEvents=1;shape=mxgraph.aws4.topic_2;" vertex="1" parent="1">
          <mxGeometry x="710" y="511" width="53" height="78" as="geometry" />
        </mxCell>
        <mxCell id="3GJUlnVpZ_GFLkOYyEOu-28" style="edgeStyle=orthogonalEdgeStyle;rounded=0;orthogonalLoop=1;jettySize=auto;html=1;" edge="1" parent="1" source="3GJUlnVpZ_GFLkOYyEOu-16" target="3GJUlnVpZ_GFLkOYyEOu-18">
          <mxGeometry relative="1" as="geometry" />
        </mxCell>
        <mxCell id="3GJUlnVpZ_GFLkOYyEOu-16" value="callsign-data updater&lt;div&gt;function&lt;/div&gt;" style="sketch=0;outlineConnect=0;fontColor=#232F3E;gradientColor=none;fillColor=#ED7100;strokeColor=none;dashed=0;verticalLabelPosition=bottom;verticalAlign=top;align=center;html=1;fontSize=12;fontStyle=0;aspect=fixed;pointerEvents=1;shape=mxgraph.aws4.lambda_function;" vertex="1" parent="1">
          <mxGeometry x="882" y="511" width="79" height="79" as="geometry" />
        </mxCell>
        <mxCell id="3GJUlnVpZ_GFLkOYyEOu-29" style="edgeStyle=orthogonalEdgeStyle;rounded=0;orthogonalLoop=1;jettySize=auto;html=1;" edge="1" parent="1" source="3GJUlnVpZ_GFLkOYyEOu-18" target="3GJUlnVpZ_GFLkOYyEOu-19">
          <mxGeometry relative="1" as="geometry">
            <Array as="points">
              <mxPoint x="1150" y="650" />
              <mxPoint x="922" y="650" />
            </Array>
          </mxGeometry>
        </mxCell>
        <mxCell id="3GJUlnVpZ_GFLkOYyEOu-18" value="callsign-data&amp;nbsp;&lt;div&gt;&lt;span style=&quot;background-color: initial;&quot;&gt;table&lt;/span&gt;&lt;/div&gt;" style="sketch=0;outlineConnect=0;fontColor=#232F3E;gradientColor=none;fillColor=#C925D1;strokeColor=none;dashed=0;verticalLabelPosition=bottom;verticalAlign=top;align=center;html=1;fontSize=12;fontStyle=0;aspect=fixed;pointerEvents=1;shape=mxgraph.aws4.dynamodb_standard_access_table_class;" vertex="1" parent="1">
          <mxGeometry x="1112" y="511" width="75" height="78" as="geometry" />
        </mxCell>
        <mxCell id="3GJUlnVpZ_GFLkOYyEOu-30" style="edgeStyle=orthogonalEdgeStyle;rounded=0;orthogonalLoop=1;jettySize=auto;html=1;" edge="1" parent="1" source="3GJUlnVpZ_GFLkOYyEOu-19" target="3GJUlnVpZ_GFLkOYyEOu-23">
          <mxGeometry relative="1" as="geometry" />
        </mxCell>
        <mxCell id="3GJUlnVpZ_GFLkOYyEOu-19" value="callsign-data api&amp;nbsp;&lt;div&gt;function&lt;/div&gt;" style="sketch=0;outlineConnect=0;fontColor=#232F3E;gradientColor=none;fillColor=#ED7100;strokeColor=none;dashed=0;verticalLabelPosition=bottom;verticalAlign=top;align=center;html=1;fontSize=12;fontStyle=0;aspect=fixed;pointerEvents=1;shape=mxgraph.aws4.lambda_function;" vertex="1" parent="1">
          <mxGeometry x="882" y="720" width="79" height="79" as="geometry" />
        </mxCell>
        <mxCell id="3GJUlnVpZ_GFLkOYyEOu-34" style="edgeStyle=orthogonalEdgeStyle;rounded=0;orthogonalLoop=1;jettySize=auto;html=1;" edge="1" parent="1" source="3GJUlnVpZ_GFLkOYyEOu-20" target="3GJUlnVpZ_GFLkOYyEOu-5">
          <mxGeometry relative="1" as="geometry" />
        </mxCell>
        <mxCell id="3GJUlnVpZ_GFLkOYyEOu-20" value="direwolf-data-collector&lt;div&gt;bucket&lt;/div&gt;" style="sketch=0;outlineConnect=0;fontColor=#232F3E;gradientColor=none;fillColor=#7AA116;strokeColor=none;dashed=0;verticalLabelPosition=bottom;verticalAlign=top;align=center;html=1;fontSize=12;fontStyle=0;aspect=fixed;pointerEvents=1;shape=mxgraph.aws4.bucket;" vertex="1" parent="1">
          <mxGeometry x="1543" y="514" width="75" height="78" as="geometry" />
        </mxCell>
        <mxCell id="3GJUlnVpZ_GFLkOYyEOu-31" style="edgeStyle=orthogonalEdgeStyle;rounded=0;orthogonalLoop=1;jettySize=auto;html=1;" edge="1" parent="1" source="3GJUlnVpZ_GFLkOYyEOu-23" target="3GJUlnVpZ_GFLkOYyEOu-5">
          <mxGeometry relative="1" as="geometry">
            <mxPoint x="1500" y="759" as="targetPoint" />
          </mxGeometry>
        </mxCell>
        <mxCell id="3GJUlnVpZ_GFLkOYyEOu-23" value="callsign-data api" style="sketch=0;outlineConnect=0;fontColor=#232F3E;gradientColor=none;fillColor=#E7157B;strokeColor=none;dashed=0;verticalLabelPosition=bottom;verticalAlign=top;align=center;html=1;fontSize=12;fontStyle=0;aspect=fixed;pointerEvents=1;shape=mxgraph.aws4.endpoint;" vertex="1" parent="1">
          <mxGeometry x="1330" y="720" width="78" height="78" as="geometry" />
        </mxCell>
        <mxCell id="3GJUlnVpZ_GFLkOYyEOu-24" value="Users" style="sketch=0;outlineConnect=0;fontColor=#232F3E;gradientColor=none;fillColor=#232F3D;strokeColor=none;dashed=0;verticalLabelPosition=bottom;verticalAlign=top;align=center;html=1;fontSize=12;fontStyle=0;aspect=fixed;pointerEvents=1;shape=mxgraph.aws4.users;" vertex="1" parent="1">
          <mxGeometry x="1800" y="240" width="78" height="78" as="geometry" />
        </mxCell>
        <mxCell id="3GJUlnVpZ_GFLkOYyEOu-25" value="User PC" style="sketch=0;outlineConnect=0;fontColor=#232F3E;gradientColor=none;fillColor=#232F3D;strokeColor=none;dashed=0;verticalLabelPosition=bottom;verticalAlign=top;align=center;html=1;fontSize=12;fontStyle=0;aspect=fixed;pointerEvents=1;shape=mxgraph.aws4.client;" vertex="1" parent="1">
          <mxGeometry x="1800" y="723" width="78" height="76" as="geometry" />
        </mxCell>
        <mxCell id="3GJUlnVpZ_GFLkOYyEOu-33" value="Leaflet.js&amp;nbsp;&lt;div&gt;map&lt;/div&gt;" style="sketch=0;outlineConnect=0;fontColor=#232F3E;gradientColor=none;fillColor=#DD344C;strokeColor=none;dashed=0;verticalLabelPosition=bottom;verticalAlign=top;align=center;html=1;fontSize=12;fontStyle=0;aspect=fixed;shape=mxgraph.aws4.location_service_map;" vertex="1" parent="1">
          <mxGeometry x="1740" y="735" width="48" height="48" as="geometry" />
        </mxCell>
        <mxCell id="3GJUlnVpZ_GFLkOYyEOu-36" value="GeoJSON Data" style="sketch=0;outlineConnect=0;fontColor=#232F3E;gradientColor=none;fillColor=#232F3D;strokeColor=none;dashed=0;verticalLabelPosition=bottom;verticalAlign=top;align=center;html=1;fontSize=12;fontStyle=0;aspect=fixed;pointerEvents=1;shape=mxgraph.aws4.json_script;" vertex="1" parent="1">
          <mxGeometry x="1130.5" y="684.37" width="37" height="50.63" as="geometry" />
        </mxCell>
        <mxCell id="3GJUlnVpZ_GFLkOYyEOu-37" value="AWS Cloud" style="points=[[0,0],[0.25,0],[0.5,0],[0.75,0],[1,0],[1,0.25],[1,0.5],[1,0.75],[1,1],[0.75,1],[0.5,1],[0.25,1],[0,1],[0,0.75],[0,0.5],[0,0.25]];outlineConnect=0;gradientColor=none;html=1;whiteSpace=wrap;fontSize=12;fontStyle=0;container=1;pointerEvents=0;collapsible=0;recursiveResize=0;shape=mxgraph.aws4.group;grIcon=mxgraph.aws4.group_aws_cloud_alt;strokeColor=#232F3E;fillColor=none;verticalAlign=top;align=left;spacingLeft=30;fontColor=#232F3E;dashed=0;" vertex="1" parent="1">
          <mxGeometry x="831" y="150" width="859" height="800" as="geometry" />
        </mxCell>
        <mxCell id="3GJUlnVpZ_GFLkOYyEOu-15" value="Lambda" style="sketch=0;points=[[0,0,0],[0.25,0,0],[0.5,0,0],[0.75,0,0],[1,0,0],[0,1,0],[0.25,1,0],[0.5,1,0],[0.75,1,0],[1,1,0],[0,0.25,0],[0,0.5,0],[0,0.75,0],[1,0.25,0],[1,0.5,0],[1,0.75,0]];outlineConnect=0;fontColor=#232F3E;fillColor=#ED7100;strokeColor=#ffffff;dashed=0;verticalLabelPosition=bottom;verticalAlign=top;align=center;html=1;fontSize=12;fontStyle=0;aspect=fixed;shape=mxgraph.aws4.resourceIcon;resIcon=mxgraph.aws4.lambda;" vertex="1" parent="3GJUlnVpZ_GFLkOYyEOu-37">
          <mxGeometry x="51" y="92" width="78" height="78" as="geometry" />
        </mxCell>
        <mxCell id="3GJUlnVpZ_GFLkOYyEOu-17" value="DynamoDB" style="sketch=0;points=[[0,0,0],[0.25,0,0],[0.5,0,0],[0.75,0,0],[1,0,0],[0,1,0],[0.25,1,0],[0.5,1,0],[0.75,1,0],[1,1,0],[0,0.25,0],[0,0.5,0],[0,0.75,0],[1,0.25,0],[1,0.5,0],[1,0.75,0]];outlineConnect=0;fontColor=#232F3E;fillColor=#C925D1;strokeColor=#ffffff;dashed=0;verticalLabelPosition=bottom;verticalAlign=top;align=center;html=1;fontSize=12;fontStyle=0;aspect=fixed;shape=mxgraph.aws4.resourceIcon;resIcon=mxgraph.aws4.dynamodb;" vertex="1" parent="3GJUlnVpZ_GFLkOYyEOu-37">
          <mxGeometry x="279" y="92" width="78" height="78" as="geometry" />
        </mxCell>
        <mxCell id="3GJUlnVpZ_GFLkOYyEOu-21" value="S3" style="sketch=0;points=[[0,0,0],[0.25,0,0],[0.5,0,0],[0.75,0,0],[1,0,0],[0,1,0],[0.25,1,0],[0.5,1,0],[0.75,1,0],[1,1,0],[0,0.25,0],[0,0.5,0],[0,0.75,0],[1,0.25,0],[1,0.5,0],[1,0.75,0]];outlineConnect=0;fontColor=#232F3E;fillColor=#7AA116;strokeColor=#ffffff;dashed=0;verticalLabelPosition=bottom;verticalAlign=top;align=center;html=1;fontSize=12;fontStyle=0;aspect=fixed;shape=mxgraph.aws4.resourceIcon;resIcon=mxgraph.aws4.s3;" vertex="1" parent="3GJUlnVpZ_GFLkOYyEOu-37">
          <mxGeometry x="709" y="91" width="78" height="78" as="geometry" />
        </mxCell>
        <mxCell id="3GJUlnVpZ_GFLkOYyEOu-22" value="API Gateway" style="sketch=0;points=[[0,0,0],[0.25,0,0],[0.5,0,0],[0.75,0,0],[1,0,0],[0,1,0],[0.25,1,0],[0.5,1,0],[0.75,1,0],[1,1,0],[0,0.25,0],[0,0.5,0],[0,0.75,0],[1,0.25,0],[1,0.5,0],[1,0.75,0]];outlineConnect=0;fontColor=#232F3E;fillColor=#E7157B;strokeColor=#ffffff;dashed=0;verticalLabelPosition=bottom;verticalAlign=top;align=center;html=1;fontSize=12;fontStyle=0;aspect=fixed;shape=mxgraph.aws4.resourceIcon;resIcon=mxgraph.aws4.api_gateway;" vertex="1" parent="3GJUlnVpZ_GFLkOYyEOu-37">
          <mxGeometry x="499" y="92" width="78" height="78" as="geometry" />
        </mxCell>
        <mxCell id="3GJUlnVpZ_GFLkOYyEOu-38" value="AWS Iot Core" style="points=[[0,0],[0.25,0],[0.5,0],[0.75,0],[1,0],[1,0.25],[1,0.5],[1,0.75],[1,1],[0.75,1],[0.5,1],[0.25,1],[0,1],[0,0.75],[0,0.5],[0,0.25]];outlineConnect=0;gradientColor=none;html=1;whiteSpace=wrap;fontSize=12;fontStyle=0;container=1;pointerEvents=0;collapsible=0;recursiveResize=0;shape=mxgraph.aws4.group;grIcon=mxgraph.aws4.group_iot_greengrass_deployment;strokeColor=#7AA116;fillColor=none;verticalAlign=top;align=left;spacingLeft=30;fontColor=#3F8624;dashed=0;" vertex="1" parent="1">
          <mxGeometry x="470" y="150" width="340" height="800" as="geometry" />
        </mxCell>
        <mxCell id="3GJUlnVpZ_GFLkOYyEOu-2" value="IoT Core&lt;div&gt;Thing&lt;/div&gt;" style="sketch=0;points=[[0,0,0],[0.25,0,0],[0.5,0,0],[0.75,0,0],[1,0,0],[0,1,0],[0.25,1,0],[0.5,1,0],[0.75,1,0],[1,1,0],[0,0.25,0],[0,0.5,0],[0,0.75,0],[1,0.25,0],[1,0.5,0],[1,0.75,0]];outlineConnect=0;fontColor=#232F3E;fillColor=#7AA116;strokeColor=#ffffff;dashed=0;verticalLabelPosition=bottom;verticalAlign=top;align=center;html=1;fontSize=12;fontStyle=0;aspect=fixed;shape=mxgraph.aws4.resourceIcon;resIcon=mxgraph.aws4.internet_of_things;" vertex="1" parent="3GJUlnVpZ_GFLkOYyEOu-38">
          <mxGeometry x="130" y="91" width="78" height="78" as="geometry" />
        </mxCell>
      </root>
    </mxGraphModel>
  </diagram>
</mxfile>
